<?xml version="1.0" encoding="UTF-8"?>
<!DOCTYPE svg PUBLIC "-//W3C//DTD SVG 1.1//EN" "http://www.w3.org/Graphics/SVG/1.1/DTD/svg11.dtd">
<!-- Creator: CorelDRAW 2019 (64-Bit) -->
<svg xmlns="http://www.w3.org/2000/svg" xml:space="preserve" width="1200px" height="630px" version="1.1" style="shape-rendering:geometricPrecision; text-rendering:geometricPrecision; image-rendering:optimizeQuality; fill-rule:evenodd; clip-rule:evenodd"
viewBox="0 0 1363.07 715.61"
 xmlns:xlink="http://www.w3.org/1999/xlink">
 <defs>
  <style type="text/css">
   <![CDATA[
    .fil0 {fill:#00D5BD}
    .fil1 {fill:#FEFEFE;fill-rule:nonzero}
    .fil2 {fill:white;fill-rule:nonzero}
   ]]>
  </style>
 </defs>
 <g id="Layer_x0020_1">
  <metadata id="CorelCorpID_0Corel-Layer"/>
  <rect class="fil0" width="1363.07" height="715.61"/>
  <g id="_1646394391856">
   <path class="fil1" d="M208.21 415.39c-12.94,0 -23.81,4.96 -31.8,14.07 -4.96,-9.43 -14.87,-14.07 -26.05,-14.07 -9.43,0 -18.54,3.2 -25.9,10.23l1.76 -8.79 -28.77 0 -17.26 86.63 30.37 0 8.63 -43.32c2.72,-13.42 9.27,-19.02 18.54,-19.02 6.87,0 10.87,4 10.87,11.67 0,1.76 -0.16,3.84 -0.64,5.92l-9.11 44.75 30.37 0 8.79 -43.64c2.71,-13.26 9.27,-18.7 18.38,-18.7 6.87,0 10.87,3.84 10.87,11.51 0,1.92 -0.16,3.84 -0.64,6.08l-8.95 44.75 30.36 0 9.43 -47.95c0.8,-3.84 1.12,-7.35 1.12,-10.71 0,-19.34 -12.63,-29.41 -30.37,-29.41z"/>
   <path id="1" class="fil1" d="M322.01 416.83l-8.63 42.83c-2.56,13.11 -9.75,19.34 -19.98,19.34 -7.83,0 -11.67,-3.99 -11.67,-11.34 0,-1.76 0.16,-3.68 0.64,-5.92l8.95 -44.91 -30.36 0 -9.59 47.79c-0.8,3.84 -1.12,7.35 -1.12,10.71 0,19.5 12.62,29.56 31,29.56 9.43,0 19.18,-3.19 26.86,-10.38l-1.76 8.95 28.77 0 17.26 -86.63 -30.37 0z"/>
   <path id="2" class="fil1" d="M440.12 505.05c13.75,0 27.65,-3.35 39.16,-9.26l-4.48 -19.34c-7.67,3.83 -22.37,6.87 -32.6,6.87 -7.99,0 -12.15,-1.76 -12.15,-5.6 0,-4.95 7.51,-6.23 18.22,-7.67 17.1,-2.39 40.12,-5.59 40.12,-27.65 0,-17.26 -13.91,-27.65 -37.56,-27.65 -11.67,0 -24.29,2.56 -35.48,7.83l4.31 19.66c7.35,-3.19 19.18,-5.43 27.81,-5.43 7.99,0 11.83,1.92 11.83,5.59 0,5.28 -7.99,6.72 -19.02,8.47 -17.42,2.56 -39.16,5.76 -39.16,26.69 0,17.27 14.87,27.49 39,27.49z"/>
   <polygon id="3" class="fil1" points="584.6,503.46 566.22,416.83 534.9,416.83 481.84,503.46 512.04,503.46 544.01,450.39 554.72,503.46 "/>
   <path id="4" class="fil1" d="M673.15 416.83l-2.08 10.39c-5.44,-8.31 -14.87,-11.83 -26.53,-11.83 -25.89,0 -46.99,21.26 -46.99,50.03 0,25.25 17.9,39.47 36.6,39.47 10.07,0 18.38,-3.35 25.09,-9.58l-1.76 8.15 28.77 0 17.26 -86.63 -30.36 0zm-28.45 63.61c-10.39,0 -16.47,-6.39 -16.47,-16.46 0,-14.54 8.63,-24.29 20.62,-24.29 10.39,0 16.46,6.55 16.46,16.62 0,14.38 -8.47,24.13 -20.61,24.13z"/>
   <path id="5" class="fil1" d="M754.66 504.89c19.02,0 34.68,-8.31 42.99,-22.37l-22.22 -13.43c-4.63,8.16 -10.86,11.35 -18.7,11.35 -11.02,0 -16.94,-6.71 -16.94,-16.78 0,-14.22 8.95,-23.97 21.26,-23.97 7.51,0 13.42,3.35 16.78,11.5l25.89 -12.3c-6.55,-14.87 -21.41,-23.5 -41.07,-23.5 -31.33,0 -53.7,21.42 -53.7,50.03 0,23.81 18.06,39.47 45.71,39.47z"/>
   <path id="6" class="fil1" d="M883.48 416.83l-31.97 53.22 -10.87 -53.22 -30.2 0 19.65 87.27c-3.67,5.43 -7.19,7.83 -12.78,7.83 -5.28,0 -9.91,-1.92 -13.43,-4.96l-13.58 21.42c5.27,4.47 15.34,7.51 24.45,7.51 18.22,0 29.41,-6.55 42.99,-28.61l55.46 -90.46 -29.72 0z"/>
   <path id="7" class="fil1" d="M983.05 441.28c14.22,-5.91 23.49,-17.42 23.49,-31 0,-16.94 -14.54,-27.49 -37.24,-27.49 -26.53,0 -46.67,14.22 -51.3,37.08l-10.07 50.34c-0.32,2.08 -0.64,4 -0.64,5.76 0,17.58 16.46,29.56 42.03,29.56 29.89,0 51.79,-16.46 51.79,-39.15 0,-12.15 -6.56,-20.94 -18.06,-25.1zm-34.37 -23.01c1.6,-7.67 7.36,-11.83 15.83,-11.83 7.19,0 10.55,3.04 10.55,9.91 0,9.59 -6.56,15.82 -16.47,15.82l-12.78 0 2.87 -13.9zm2.56 64.09c-8.31,0 -13.1,-3.84 -13.1,-10.07 0,-0.96 0.16,-1.92 0.32,-2.88l3.03 -15.82 15.83 0c8.95,0 13.1,3.52 13.1,11.03 0,10.39 -7.83,17.74 -19.18,17.74z"/>
   <path id="8" class="fil1" d="M1086.61 416.83l-2.07 10.39c-5.44,-8.31 -14.87,-11.83 -26.53,-11.83 -25.9,0 -46.99,21.26 -46.99,50.03 0,25.25 17.9,39.47 36.6,39.47 10.07,0 18.38,-3.35 25.09,-9.58l-1.76 8.15 28.77 0 17.26 -86.63 -30.37 0zm-28.44 63.61c-10.39,0 -16.47,-6.39 -16.47,-16.46 0,-14.54 8.63,-24.29 20.62,-24.29 10.39,0 16.46,6.55 16.46,16.62 0,14.38 -8.47,24.13 -20.61,24.13z"/>
   <path id="9" class="fil1" d="M1252.51 416.83l-8.63 43.15c-2.71,13.59 -9.27,19.02 -18.54,19.02 -6.87,0 -10.87,-3.83 -10.87,-11.5 0,-1.76 0.16,-3.84 0.64,-5.92l9.11 -44.75 -30.36 0 -8.79 43.63c-2.56,13.11 -9.27,18.54 -18.38,18.54 -6.88,0 -10.87,-3.83 -10.87,-11.5 0,-1.76 0.16,-3.84 0.64,-5.92l8.95 -44.75 -30.37 0 -9.43 47.79c-0.8,3.84 -1.12,7.51 -1.12,10.71 0,19.5 12.63,29.56 30.37,29.56 12.95,0 23.81,-4.95 31.8,-14.06 4.96,9.43 14.87,14.06 26.06,14.06 9.43,0 18.7,-3.35 25.89,-10.22l-1.76 8.79 28.77 0 17.26 -86.63 -30.37 0z"/>
   <path class="fil2" d="M282.41 343.14l-25.89 0 -20.96 -42.48 72.24 -35.65 -25.39 78.13zm-132.92 0l66.46 -32.8 16.19 32.8 -82.65 0zm23.21 -120.43l33.57 68.02 -66.3 32.72 32.73 -100.74zm124.21 23.29l-71.03 35.05 -34.16 -69.23 105.19 34.18zm73.45 83.62l-60.56 0 23.35 -71.85 6.76 -20.8 -20.81 -6.76 -134.62 -43.74 -20.8 -6.76 -6.76 20.8 -41.95 129.11 -11.5 35.39 255.57 0 11.32 -35.39z"/>
  </g>
 </g>
</svg>