<?xml version="1.0" encoding="UTF-8" standalone="no"?>
<!-- Creator: CorelDRAW -->

<svg
   xmlns:dc="http://purl.org/dc/elements/1.1/"
   xmlns:cc="http://creativecommons.org/ns#"
   xmlns:rdf="http://www.w3.org/1999/02/22-rdf-syntax-ns#"
   xmlns:svg="http://www.w3.org/2000/svg"
   xmlns="http://www.w3.org/2000/svg"
   xmlns:sodipodi="http://sodipodi.sourceforge.net/DTD/sodipodi-0.dtd"
   xmlns:inkscape="http://www.inkscape.org/namespaces/inkscape"
   xml:space="preserve"
   width="261.27612mm"
   height="169.67859mm"
   version="1.0"
   style="clip-rule:evenodd;fill-rule:evenodd;image-rendering:optimizeQuality;shape-rendering:geometricPrecision;text-rendering:geometricPrecision"
   viewBox="0 0 26127.612 16967.859"
   id="svg127"
   sodipodi:docname="temp.svg"
   inkscape:version="0.92.3 (2405546, 2018-03-11)"><metadata
   id="metadata131"><rdf:RDF><cc:Work
       rdf:about=""><dc:format>image/svg+xml</dc:format><dc:type
         rdf:resource="http://purl.org/dc/dcmitype/StillImage" /><dc:title /></cc:Work></rdf:RDF></metadata><sodipodi:namedview
   pagecolor="#ffffff"
   bordercolor="#666666"
   borderopacity="1"
   objecttolerance="10"
   gridtolerance="10"
   guidetolerance="10"
   inkscape:pageopacity="0"
   inkscape:pageshadow="2"
   inkscape:window-width="1533"
   inkscape:window-height="845"
   id="namedview129"
   showgrid="false"
   inkscape:zoom="1"
   inkscape:cx="545.48724"
   inkscape:cy="86.048957"
   inkscape:window-x="67"
   inkscape:window-y="27"
   inkscape:window-maximized="1"
   inkscape:current-layer="Plan_x0020_1"
   fit-margin-top="0"
   fit-margin-left="0"
   fit-margin-right="0"
   fit-margin-bottom="0" />
 <defs
   id="defs4">
  <style
   type="text/css"
   id="style2">
   <![CDATA[
    .str1 {stroke:black;stroke-width:10;stroke-miterlimit:3.864;stroke-opacity:0.501961}
    .str3 {stroke:black;stroke-width:50;stroke-miterlimit:22.9256}
    .str0 {stroke:black;stroke-width:10;stroke-miterlimit:22.9256}
    .str2 {stroke:black;stroke-width:10;stroke-miterlimit:3.864}
    .fil7 {fill:none}
    .fil2 {fill:#FEFEFE}
    .fil1 {fill:#EBECEC}
    .fil0 {fill:#A2D9F7}
    .fil6 {fill:#FEFEFE;fill-rule:nonzero}
    .fil5 {fill:#D9DADA;fill-rule:nonzero}
    .fil4 {fill:black;fill-rule:nonzero}
    .fil3 {fill:#FEFEFE;fill-rule:nonzero;fill-opacity:0.501961}
   ]]>
  </style>
 </defs>
 <g
   id="Plan_x0020_1"
   transform="translate(-1740.6745,-1498.0644)">
  <metadata
   id="CorelCorpID_0Corel-Layer" />
  
  
  
  
  
  
  
  
  
  <path
   style="fill:#fefefe;stroke:#000000;stroke-width:9.9999876;stroke-miterlimit:22.92560005"
   d="m 5999.485,9432.4655 c -0.1058,0.026 -0.9287,0.4948 -1.0345,0.516 -16.9799,3.5697 -49.9207,-38.921 -65.6806,-49.3511 -60.5199,-40.0298 -66.1929,-32.1421 -85.7829,-99.6319 -6.45,-22.2501 -56.7374,-34.0405 -74.8272,-46.5605 -21.3802,-14.7799 -18.9825,-49.0588 -39.2226,-55.7588 -35.7398,-11.8501 -51.6138,21.7389 -83.0438,-22.8409 -31.3899,-44.5 -52.1068,-50.2967 -98.5469,-9.1469 -37.4599,33.18 -23.3301,85.2518 -45.6302,124.2818 -13.3901,23.4201 -46.0325,27.3354 -40.1526,63.9753 8.2301,51.2 42.4708,148.3546 -22.7891,167.2247 -16.4502,4.7601 22.7891,69.7864 22.7891,87.7466 0,45.4998 41.1617,84.4059 -26.4583,111.4659 -46.94,18.7899 -57.3452,63.0451 -99.4253,63.0451 -82.7198,0 9.6589,164.4603 -41.961,232.1303 -61.66,80.8099 -31.4486,79.5259 -141.4384,65.8359 -56.3998,-7.01 -41.207,19.236 -98.5469,-18.294 -34.9498,-22.88 -97.4993,-29.868 -138.6991,-28.318 -26.5202,1 -118.2083,15.271 -140.5082,23.771 -46.7999,17.83 -59.9513,108.35 -113.1714,125.16 l -8.9916,68.574 c 39.6499,24.611 60.5522,33.268 109.5022,31.058 31.5701,-1.431 83.0711,-13.388 111.3109,-6.408 3.5599,14.51 -9.2975,35.54 -4.5474,52.09 4.5,15.7 21.3595,28.812 23.7193,46.612 7.8301,59.04 28.3438,50.01 81.1836,52.09 28.13,1.1 43.9801,35.024 71.2102,41.134 26.6099,5.98 100.3555,13.55 100.3555,51.16 0,13.54 -27.9246,31.102 -33.7447,47.542 -9.0299,25.55 -3.2961,53.029 11.8338,75.809 4.8215,8.252 8.3846,11.108 13.3842,17.157 l 789.3566,-360.908 z"
   id="path4565"
   inkscape:connector-curvature="0" /><path
   style="fill:#fefefe;stroke:#000000;stroke-width:9.9999876;stroke-miterlimit:22.92560005"
   d="m 6512.4764,10462.944 -579.7056,-180.609 -786.5142,359.616 c 24.8647,30.083 48.2279,43.298 14.8828,94.361 -19.3699,29.65 -140.4701,62.589 -134.1002,107.849 7.0799,50.26 24.7657,16.676 56.5855,7.286 56.13,-16.55 146.6822,-12.868 197.0421,20.102 46.9101,30.7 76.9101,12.816 115.9102,64.906 24.4699,32.669 61.289,20.624 93.0691,40.204 29.6299,18.24 23.8509,30.9 66.6109,25.58 100.3198,-12.47 119.5272,59.247 119.5272,138.027 l -22.1172,44.752 84.8007,65.836 c 70.4701,105.809 133.2765,103.92 238.1765,153.53 53.88,25.49 144.5758,162.677 190.6858,162.677 13.6498,-55.53 179.2777,-53.547 121.3878,-137.097 -15.13,-21.85 3.589,-60.911 -22.841,-74.931 -21.4201,-11.35 -78.466,-57.083 -31.9359,-71.313 63.9298,-19.54 60.395,-71.646 125.0051,-37.465 34.0098,17.979 69.1059,27.293 102.2158,44.803 42.2299,22.35 69.4221,2.739 108.5719,2.739 4.8901,19.47 1.8733,44.064 -3.5655,64.853 71.5099,76.42 127.0189,107.817 118.6488,218.436 -6.7,88.61 -76.7812,131.368 1.8098,210.168 44.85,44.98 15.7667,90.554 97.6165,44.804 54.2605,-30.34 42.3378,9.747 75.7578,5.477 16.2798,-2.069 24.3237,-21.342 37.4137,-21.962 32.69,-1.551 82.9899,47.542 133.1699,47.542 50.8801,0 78.864,-49.351 127.7441,-49.351 12.2999,0 49.2992,15.272 49.2992,-5.477 0,-37.09 -8.7296,-105.767 -23.7196,-139.837 -21.9699,-49.97 -22.7845,-134.463 -60.2545,-174.562 -27.51,-29.43 -62.9851,-35.061 -79.3749,-74.931 34.74,-87.24 -18.6716,-44.478 -87.5915,-52.968 -91.74,-11.3 -81.5535,-70.569 -125.8836,-133.429 -18.4499,-26.15 -87.3952,-40.143 -81.2352,-69.453 8.7598,-41.71 -12.0227,-79.381 30.1273,-102.371 23.3798,-12.76 1.4208,-31.788 -1.8098,-53.898 -13.2098,-90.18 -6.4079,-166.091 -6.4079,-258.64 0,-87.88 -120.226,-77.58 -121.3359,-103.25 -0.5398,-12.68 8.7598,-31.974 0,-42.995 -13.3501,-16.819 -46.5725,-17.535 -65.7325,-35.605 -27.41,-25.829 -68.4804,9.911 -90.3302,-4.599 0,-37.643 18.9886,-67.323 18.3967,-98.805 z"
   id="path4570"
   inkscape:connector-curvature="0" /><path
   style="fill:#fefefe;stroke:#000000;stroke-width:9.9999876;stroke-miterlimit:22.92560005"
   d="m 6418.5801,9239.1957 c -7.2061,-2.5823 -15.9056,-0.3254 -26.7681,9.7153 -35.9999,33.2599 -32.1151,101.1924 -79.3749,21.9625 -12.81,0 -15.2873,16.3819 -30.1275,19.1719 -20.5399,14.9299 -57.3738,48.0308 -82.1136,49.3508 -27.3701,1.4711 -49.7832,-2.1008 -60.203,26.5102 -3.1064,8.555 -122.2447,61.6076 -137.6659,65.2671 l -69.5563,851.1615 -2.8424,1.291 579.7056,180.609 c -0.2646,-13.679 -3.3144,-27.64 -14.7277,-42.839 -27.5601,-36.71 74.9534,-53.181 106.7634,-74.001 41.4499,-27.14 72.3018,14.322 107.6419,-31.987 28.62,-37.491 8.9466,-111.5 53.8466,-131.62 72.2299,-32.35 162.9369,42.52 187.0168,-78.6 32.9501,-32.95 54.4057,-65.576 56.5856,-111.4661 1.8812,-39.3898 24.6496,-63.6716 24.6496,-97.7716 0,-25.0301 -11.6268,-49.2156 16.4332,-64.9054 35.42,-19.79 64.2217,39.1789 88.5216,-21.9109 18.1401,-45.58 4.3039,-106.3809 11.834,-155.3909 4.64,-30.1599 14.6243,-59.0552 14.6243,-89.555 28.92,-60.4901 106.2367,-82.1539 97.6165,-143.4538 -27.9899,-11.8898 -69.4866,20.1798 -98.5468,-1.86 -12.6799,6.4101 -66.0759,24.9957 -76.6359,11.8856 -15.05,-18.71 11.0458,-58.422 -13.6943,-73.122 -34.4,-20.43 -102.5905,-18.0207 -135.9605,4.5993 -27.41,18.5697 -89.0933,44.6428 -106.7635,68.5227 -30.9797,41.8499 -50.615,123.8487 -124.0748,54.8285 -44.65,-41.9597 -64.7065,-138.6492 -122.2662,-155.3391 -28.43,-8.2499 -101.3276,3.197 -119.5275,-16.433 -14.415,-15.5625 -22.7713,-66.8767 -44.3902,-74.6208 z"
   id="path25"
   inkscape:connector-curvature="0" />
  
  
  
  
  
  
  
  
  
  <path
   style="fill:#fefefe;stroke:#000000;stroke-width:9.9999876;stroke-miterlimit:22.92560005"
   d="m 12107.224,11369.505 -645.127,222.466 -38.964,372.639 150.171,456.044 239.159,33.331 c 0,0 93.116,-27.807 186.964,-58.394 46.925,-15.294 94.045,-31.248 129.76,-44.804 35.715,-13.556 60.053,-24.669 61.443,-30.231 2.781,-11.122 76.454,-105.691 149.448,-197.455 72.994,-91.764 145.314,-180.764 145.314,-180.764 l -88.987,-283.6 z"
   id="path4576"
   inkscape:connector-curvature="0" /><path
   style="fill:#fefefe;stroke:#000000;stroke-width:10.00123692;stroke-miterlimit:22.92560005;stroke-dasharray:none"
   d="m 10754.131,9705.8357 c -94.49,-21.0198 -99.782,62.1501 -110.432,131.6198 -8.921,58.1299 -38.688,73.8218 -94.878,97.7719 -56.96,24.2699 -164.05,-2.5771 -228.1,-4.5477 l -91.26,31.0575 0.05,119.7338 c -37.69,23.34 -65.681,-3.061 -65.681,53.899 0,26.61 3.57,56.049 -0.931,82.268 -4.6,26.77 -5.362,37.256 -18.242,62.116 -8.44,16.309 -12.351,35.909 -21.911,51.159 -24.729,39.42 6.754,39.897 38.344,62.167 34.62,24.39 60.681,37.302 86.661,73.122 30.811,45.07 106.947,51.705 147.847,90.485 32.59,30.89 78.763,42.938 104.903,78.548 11.47,15.64 28.184,68.216 39.274,90.486 22,44.21 122.867,61.471 72.967,124.281 -25.76,32.41 -21.227,61.947 -54.777,88.677 -32.68,26.02 1.86,39.063 1.86,69.453 0,21.32 -14.235,40.662 -35.605,45.682 -31.861,7.48 -58.075,-40.485 -78.445,-15.555 -22.86,27.96 -62.518,29.249 -95.808,29.249 9.27,31.96 23.912,69.371 18.242,102.371 -4.79,27.84 -65.212,147.386 -87.592,164.486 -23.34,17.85 -101.36,37.762 -91.26,74.052 11.09,39.82 35.605,61.157 35.605,107.797 0,58.57 78.857,38.992 118.597,73.122 22.08,18.95 47.501,14.12 68.471,26.51 15.52,9.18 -4.508,36.69 -6.408,52.09 -1.569,60.61 16.812,49.06 42.892,101.44 13.81,27.761 -21.204,45.176 -37.414,63.046 -14.61,16.1 -16.092,54.901 -19.172,75.861 -10.65,72.56 90.853,51.768 61.133,107.848 -33.26,62.73 34.4,51.617 24.65,86.816 -5.19,18.71 -57.037,39.273 -33.796,67.593 24.009,29.28 107.118,46.951 116.788,76.791 8.17,25.19 -2.627,37.377 17.363,61.237 19.21,22.95 39.877,36.844 53.847,64.854 12.72,38.229 -20.442,44.876 -18.242,85.886 2.511,46.89 -36.553,21.962 -62.063,21.962 -5.16,5.16 -45.74,59.855 -46.56,63.975 35.92,35.721 82.165,34.614 82.165,95.963 0,43.951 33.857,34.587 52.917,60.307 11.66,15.72 20.818,116.355 26.458,141.645 15.09,67.54 9.095,129.642 9.095,199.212 0,65.23 12.598,95.433 71.158,123.403 39.05,18.64 40.316,76.527 81.236,107.797 31.42,24.02 60.538,57.863 1.809,70.383 -32.31,6.89 -66.23,30.61 -90.33,53.02 -30.46,28.31 -42.862,14.145 -62.012,-10.955 -23.25,-30.46 -117.967,22.716 -146.037,33.796 -47.54,18.78 -47.494,6.112 -80.253,44.752 -17.36,20.49 -55.33,30.13 -23.72,53.02 44.37,32.11 75.63,86.162 113.12,126.142 39.15,41.77 -44.56,71.991 -69.35,96.841 -6.58,31.301 -7.014,38.188 -32.814,57.568 -10.7,8.03 -35.1,27.834 -23.72,41.134 42.16,49.23 98.495,150.736 98.495,217.506 0,30.78 -0.529,74.172 21.911,97.772 24.71,25.97 64.103,32.681 40.152,75.861 -6.339,20.22 -23.314,32.01 -34.674,48.42 -16.81,24.301 19.692,46.66 -5.478,78.6 -17.91,22.74 -8.437,50.401 -4.547,75.861 4.16,27.19 -1.995,72.903 -14.625,95.963 -9.99,18.22 -4.497,21.97 -27.337,26.51 -19.3,3.83 -33.796,6.627 -33.796,29.197 49.21,4.93 40.227,54.197 99.477,62.167 54.2,7.28 109.398,8.216 164.228,8.216 86.109,0 32.481,84.738 62.941,137.098 21.65,37.23 84.884,39.445 106.764,88.625 25.5,57.29 150.23,2.251 181.59,-29.249 25.7,-25.8 56.81,-38.476 93.07,-33.796 22.27,2.88 67.321,-46.867 85.731,-61.237 41.309,6.45 68.563,-21.388 106.763,-28.318 30.62,-5.56 187.298,22.244 209.858,40.204 18.87,15.03 18.562,43.43 41.082,53.02 29.56,12.58 35.916,-0.133 55.656,-21.033 11.81,-12.52 74.598,21.971 94.878,27.441 61.93,16.69 24.344,100.549 57.464,154.409 32.92,53.52 78.018,97.25 52.038,154.46 -1.14,37.32 -36.709,22.077 -49.299,34.727 -11.52,11.56 -12.898,95.814 -24.598,117.874 -14.83,27.99 -62.929,50.281 -93.069,50.281 6.18,25 39.292,87.153 63.871,95.032 50.151,16.101 44.716,4.05 54.726,52.09 5.43,26.1 32.927,45.435 4.547,67.645 -15.93,12.47 -62.435,281.879 33.745,180.919 18.14,-19.03 46.257,-28.56 53.847,0.931 5.43,21.07 11.287,29.134 29.197,40.204 24.66,15.26 9.409,39.779 47.439,53.899 27.27,10.13 64.276,9.956 78.496,38.395 12.16,19.93 58.971,141.234 90.331,96.893 11.449,-16.199 20.753,-106.917 37.413,-109.657 35.99,-5.91 39.52,-15.088 69.35,-33.848 51.64,-32.47 102.589,28.33 136.839,4.599 15.78,-10.94 16.927,-36.001 29.197,-51.211 18.23,-22.62 7.39,-37.615 7.39,-63.975 18.99,-93.73 82.575,-74.848 142.265,-31.058 26.69,19.59 85.731,28.63 85.731,-25.58 0,-16.209 -19.674,-10.223 -32.814,-18.293 -28.82,-17.69 -11.998,-168.012 -7.339,-200.143 12.06,-83.099 48.135,-182.664 105.885,-245.824 5.98,-2.201 45.486,-26.527 51.056,-31.988 12.441,-12.21 4.867,-42.013 31.936,-42.013 9.601,38.21 56.142,65.659 89.452,81.339 59.16,27.86 -15.964,124.433 53.796,148.053 26.579,9 75.215,-26.897 102.215,-35.657 34.02,-11.03 34.799,16.276 47.439,37.465 l 13.694,39.275 c 14.17,1.96 83.295,-27.517 102.165,-34.727 24.63,-9.4 55.363,0.185 37.413,-33.796 -25.96,-49.17 -16.682,-120.583 50.178,-122.473 91.56,-2.601 105.52,-124.016 90.33,-189.136 -7.23,-30.98 -16.612,-76.791 31.058,-76.791 58.84,0 87.873,-27.702 125.883,-72.192 15.89,-31.81 9.356,-63.104 35.606,-91.363 8.899,-9.57 19.436,-14.094 31.936,-17.364 21.569,-5.64 30.867,-6.222 49.247,4.548 l 35.605,25.58 c 24.41,1.309 100.824,-2.186 125.884,-7.287 85.08,-17.31 54.991,-73.1 66.611,-131.619 9.47,-47.73 50.445,-72.489 80.304,-107.849 22.87,-27.07 62.354,-25.728 81.184,-52.968 22.45,-32.5 57.821,-85.963 66.611,-123.404 9.85,-41.899 -35.553,-108.489 -35.553,-156.269 25.38,-87.95 -7.725,-137.326 -33.745,-216.576 -25.78,-78.54 8.988,-70.541 48.317,-124.281 14.25,-19.46 30.157,-69.453 53.847,-69.453 55.17,0 95.463,-52.13 85.783,-105.11 -6.89,-37.68 20.475,-86.799 9.095,-128.829 l -45.63,1.81 c -33.29,0 -43.645,-13.292 -34.675,-45.682 8.49,-30.7 -4.372,-42.475 -17.312,-67.645 -9.45,-18.4 -8.634,-37.157 -14.624,-56.637 -8.67,-28.14 -31.186,-28.563 -55.656,-17.363 -50.979,23.35 -70.353,8.421 -104.903,-29.249 -35.51,-31.93 -42.527,-37.847 -50.177,-84.077 -3.23,-19.511 -6.012,-54.904 -19.172,-69.454 -18.98,-21.01 -107.683,10.929 -131.413,27.389 -25.48,17.66 -63.748,60.215 -93.948,64.905 -44.15,6.85 -67.077,-42.805 -97.616,-64.905 -18.91,-13.69 -46.123,-4.532 -65.733,-19.172 -74.58,-55.66 1.789,149.004 -63.872,144.384 -26.13,-1.831 -39.324,-76.075 -57.464,-63.976 -13.39,8.94 -23.351,21.284 -41.031,18.294 -32.29,-5.45 -16.106,-30.664 -33.796,-39.274 -13.33,-6.5 -38.177,-0.357 -53.847,-6.408 -23.93,-9.23 -25.949,-33.312 -46.509,-47.542 -17.66,-12.21 -65.247,-11.307 -73.897,-34.727 -11.68,-31.66 8.295,-146.048 10.955,-185.518 -5.87,-53.64 -45.464,-254.62 31.006,-257.71 l 315.691,-12.764 c 19.5,-0.781 6.682,-89.564 -4.548,-94.154 -30.059,-12.27 -48.928,-4.918 -73.018,-31.058 -23.07,-25.05 -8.533,-52.326 -60.203,-12.816 -56.15,42.92 -38.344,-36.669 -38.344,-75.809 0,-103.76 -57.256,-214.38 -31.936,-310.73 22.12,-59.02 -5.302,-131.057 -18.242,-188.257 -9.95,-43.94 3.572,-107.283 18.242,-148.983 39.34,-111.84 78.389,25.477 138.699,34.727 79.39,12.19 73.005,-2.548 104.025,70.383 19.92,46.82 20.475,22.733 55.655,18.293 50.43,-100.86 49.416,-218.459 -82.113,-260.449 -66.59,-21.25 -70.512,-26.464 -64.802,-92.294 6.35,-73.119 59.728,-47.417 73.948,-85.007 14.36,-37.94 8.272,-26.549 37.362,-55.759 15.89,-15.97 33.609,-48.493 28.319,-69.453 -29.1,-4.11 -49.604,0.68 -58.394,-29.249 -53.89,-129.76 -370.883,101.665 -450.773,-37.465 -36.05,-62.8 -62.278,-49.188 -117.667,-84.078 -27.65,-17.42 -97.617,-166.681 -97.617,-201.951 0,-39.43 19.762,-74.026 17.312,-112.396 -1.501,-23.39 -82.35,-40.444 -69.35,-66.714 l 52.916,-106.919 c 25.91,-52.349 13.424,-118.245 -6.356,-170.015 0,-55.9 24.994,-105.718 12.764,-158.078 -9.979,-42.72 -15.674,-76.024 -13.694,-119.734 4.06,-89.73 19.89,-163.664 -24.65,-244.894 -12.289,-22.43 -5.704,-46.073 -13.694,-69.453 -18.44,11 -91.707,5.754 -119.527,13.694 -40.06,11.42 -94.655,43.992 -125.005,72.192 -17.29,16.08 -29.072,-28.556 -41.962,-32.867 -19.029,-6.379 -73.897,12.786 -73.897,35.606 0,15.98 4.057,39.064 -15.503,42.994 -51.46,10.33 -127.317,-43.894 -189.807,-41.134 -63.07,15.94 -97.256,31.484 -145.986,-11.886 -31.56,-28.1 -92.462,24.77 -129.552,25.58 l -83.923,1.81 c -24.78,0.54 -69.119,45.638 -93.999,59.428 -63.64,35.25 -110.406,-15.058 -166.036,-32.918 -99.5,-31.94 -136.272,-7.118 -224.482,-85.008 -35.81,-31.61 -116.152,-239.9839 -134.152,-243.9637 -38.64,-8.5302 -124.471,-24.8332 -156.011,-42.9432 -26.14,-15 -52.354,-40.092 -81.184,-46.6121 -61.21,-16.37 -104.787,11.3141 -164.227,12.764 -55.07,1.3494 -79.304,-18.4686 -127.744,-29.2488 z m 1353.094,1663.6693 289.181,289.232 88.987,283.6 c 0,0 -72.321,89 -145.314,180.764 -72.994,91.764 -146.668,186.333 -149.449,197.456 -1.389,5.561 -25.728,16.674 -61.443,30.23 -35.714,13.556 -82.834,29.51 -129.759,44.804 -93.849,30.588 -186.965,58.394 -186.965,58.394 l -239.158,-33.331 -150.172,-456.044 38.964,-372.639 z"
   id="path45"
   inkscape:connector-curvature="0" />
  
  
  
  
  
  
  
  
  
  
  
  
  
  
  
  
  
  
  
  
  
  
  
  
  
  
  
  
 <path
   id="path823"
   d="m 21406.658,14965.974 c -796.595,0 -1444.811,648.112 -1444.811,1444.81 0,796.699 648.216,1444.811 1444.811,1444.811 796.698,0 1444.914,-648.009 1444.914,-1444.811 0,-796.698 -648.216,-1444.81 -1444.914,-1444.81 z m 1319.976,1444.81 c 0,25.286 -2.073,49.971 -4.084,74.967 -9.16,-23.462 -23.338,-54.054 -26.715,-67.215 -5.099,-19.98 -34.779,-89.641 -34.779,-89.641 0,0 -29.866,-39.774 -49.764,-49.764 -19.773,-10.197 -34.778,-34.883 -69.661,-54.676 -34.861,-19.98 -49.66,-29.867 -79.444,-29.867 -29.97,0 -59.65,-39.877 -94.636,-59.774 -34.884,-19.773 -39.775,-10.197 -39.775,-10.197 0,0 39.775,59.671 39.775,74.552 0,14.882 44.664,39.774 89.641,29.784 0,0 29.784,54.759 44.665,69.64 14.903,14.902 -5.098,29.888 -34.778,49.785 -29.867,19.773 -24.872,14.881 -39.962,29.763 -14.902,14.902 -64.562,39.981 -79.547,49.784 -14.903,10.197 -74.553,39.774 -104.337,10.197 -14.59,-14.384 -10.197,-44.665 -19.897,-64.666 -10.197,-19.876 -114.409,-174.08 -164.194,-243.637 -8.144,-12.229 -29.866,-49.971 -44.665,-59.651 -14.881,-10.217 34.882,-10.217 34.882,-10.217 0,0 0,-34.862 -5.098,-59.651 -5.099,-24.892 5.098,-59.671 5.098,-59.671 0,0 -49.763,29.783 -64.852,39.774 -14.799,10.218 -29.784,-19.773 -49.577,-44.77 -19.877,-24.767 -39.878,-54.759 -44.769,-79.651 -5.099,-24.768 24.892,-34.758 24.892,-34.758 l 44.665,-24.789 c 0,0 54.759,-10.197 89.641,-5.099 34.779,5.099 89.435,10.199 89.435,10.199 0,0 14.902,-34.884 -5.099,-49.765 -19.773,-14.903 -64.749,-39.774 -84.646,-34.779 -19.773,5.1 10.197,-24.892 34.675,-44.769 l -55.069,-10.197 c 0,0 -50.076,24.872 -65.061,29.867 -14.902,5.098 -40.788,14.902 -60.79,39.773 -19.773,24.893 8.166,59.671 -11.917,69.661 -19.794,10.199 -33.266,14.882 -48.251,19.794 -14.882,5.099 -62.2,0 -62.2,0 -51.4,0 -18.467,46.904 -5.098,63.526 l -39.774,-48.541 -29.473,-69.557 c 0,0 -42.427,-29.784 -62.324,-39.671 -19.877,-10.197 -81.185,-44.768 -81.185,-44.768 l 4.083,44.768 57.619,58.345 5.098,1.037 29.991,39.773 -66.179,5.099 v -39.358 c -62.427,-15.11 -46.116,-30.614 -53.142,-35.402 -14.777,-10.197 -49.369,-34.882 -49.369,-34.882 0,0 -58.531,10.197 -73.518,15.006 -15.006,5.098 -19.171,19.876 -48.851,29.763 -29.991,10.197 -43.443,24.892 -53.35,39.774 -10.197,14.902 -42.323,59.671 -61.992,79.547 -20.001,20.001 -56.915,14.902 -71.795,14.902 -15.007,0 -86.802,-19.897 -86.802,-19.897 v -84.335 c 0,0 9.181,-47.318 5.098,-62.2 l 43.546,-7.151 72.728,-14.985 21.307,-15.006 30.592,-39.773 c 0,0 -34.365,-24.872 -9.181,-59.651 11.937,-16.725 54.883,-19.897 74.759,-34.779 19.794,-14.881 49.868,-24.892 49.868,-24.892 0,0 34.882,-29.763 69.661,-64.645 0,0 24.892,-14.985 54.655,-24.996 0,0 84.646,74.656 99.652,74.656 14.985,0 69.64,-34.779 69.64,-34.779 0,0 14.902,-44.665 10.219,-59.65 -5.119,-14.902 -29.887,-64.666 -29.887,-64.666 0,0 -14.902,24.892 -29.784,44.769 -14.881,19.897 -24.892,44.769 -24.892,44.769 0,0 -69.642,-5.099 -74.532,-19.67 -5.12,-15.006 -14.902,-39.565 -20.002,-54.364 -5.098,-14.985 -44.664,-14.488 -74.344,-4.084 -29.992,10.199 5.099,-53.639 5.099,-53.639 0,0 29.99,-37.535 49.763,-37.535 19.794,0 64.77,-25.495 84.439,-30.386 20.001,-5.099 79.859,-27.731 104.544,-27.731 24.892,0 54.759,10.695 69.764,10.695 14.985,0 74.553,0 74.553,0 l 104.315,-8.146 c 0,0 89.642,33.142 59.671,53.122 0,0 34.966,21.513 49.868,36.415 13.969,14.075 50.076,-12.953 70.78,-24.476 372.142,233.544 620.981,646.681 620.981,1117.748 z m -2373.267,-778.336 c 0,19.877 -27.131,24.665 0,74.637 34.675,64.666 5.098,94.553 5.098,94.553 0,0 -84.646,59.651 -99.548,69.661 -14.881,10.198 -54.655,64.646 -29.866,49.661 24.871,-14.902 54.655,-29.784 29.866,10.197 -24.871,39.877 -69.64,104.419 -79.547,129.415 -10.198,24.995 -59.651,84.542 -59.651,114.429 0,29.888 -19.897,89.642 -14.881,114.534 3.047,17.327 -7.151,68.417 -16.332,89.434 7.151,-279.639 100.874,-537.35 256.301,-748.158 5.098,1.037 9.162,2.074 9.162,2.074 z m 159.8,-190.722 c 121.664,-112.274 264.239,-201.813 421.511,-262.395 -15.503,19.876 -34.26,40.27 -34.26,40.27 0,0 -34.779,0 -99.55,69.661 -64.562,69.661 -49.66,49.764 -64.562,69.558 -14.882,19.794 -10.197,24.892 -44.872,49.867 -34.676,24.789 -49.661,54.656 -49.661,54.656 l -54.759,19.897 -44.665,-19.897 c 0,0 -39.981,15.005 -34.986,-5.099 1.037,-5.099 3.048,-10.797 6.115,-16.622 z m 596.214,116.066 -19.794,-29.783 19.794,-44.769 47.918,19.172 v -88.833 l 45.805,-24.768 38.034,54.655 58.531,64.749 -38.841,29.784 -103.633,19.897 v -52.727 z m 646.784,467.587 c 11.608,-9.162 49.66,14.902 49.66,14.902 0,0 124.317,24.872 144.193,39.774 20.002,14.985 54.781,24.975 64.771,39.981 10.197,14.881 44.665,59.65 49.555,74.552 5.1,14.882 29.993,69.744 34.988,89.538 5.098,19.876 19.897,69.64 34.778,94.532 14.882,24.996 99.528,134.307 129.312,184.091 l 89.744,-14.902 c 0,0 -10.197,44.665 -19.98,59.671 -10.197,14.882 -39.773,54.655 -54.676,74.553 -14.985,19.876 -34.758,49.763 -64.645,74.552 -29.784,24.768 -29.991,49.66 -44.769,69.64 -14.902,19.898 -34.882,64.666 -34.882,64.666 0,0 10.197,99.529 14.882,119.427 5.098,19.876 -34.779,74.552 -34.779,74.552 l -44.873,44.873 -59.962,79.444 5.099,74.552 c 0,0 -45.287,34.965 -70.262,54.759 -24.685,19.794 -20.809,34.779 -40.686,54.759 -19.794,19.793 -97.599,54.676 -117.498,59.671 -19.876,5.098 -129.622,19.876 -129.622,19.876 v -44.665 l -2.073,-49.764 c 0,0 -15.088,-59.671 -30.094,-79.547 -14.985,-19.898 -8.145,-49.868 -33.349,-74.656 -24.872,-24.893 -34.053,-44.666 -39.048,-59.754 -5.098,-14.902 5.099,-59.568 5.099,-59.568 0,0 20.083,-54.759 29.97,-74.656 10.197,-19.876 0,-49.66 -10.197,-69.64 -10.197,-20.002 -14.778,-69.766 -14.778,-84.565 0,-14.88 -39.981,-39.856 -54.863,-54.759 -14.902,-14.881 -10.197,-34.882 -10.197,-54.551 0,-20.105 -14.902,-64.77 -10.217,-99.652 5.098,-34.779 -44.666,-10.197 -74.532,0 -29.889,10.197 -49.681,-10.197 -49.681,-39.877 0,-29.867 -54.655,-5.099 -89.539,14.902 -34.986,19.876 -74.656,19.876 -114.637,34.882 -39.67,14.882 -59.443,-14.902 -59.443,-14.902 0,0 -34.986,-29.784 -59.671,-44.769 -24.975,-14.882 -49.868,-44.665 -69.848,-69.558 -19.793,-24.975 -69.661,-99.631 -74.449,-129.311 -5.098,-29.991 0,-49.971 0,-84.749 0,-34.779 0,-54.656 5.099,-79.548 5.098,-24.872 19.876,-54.759 34.882,-79.651 14.882,-24.872 69.64,-54.655 84.439,-64.645 14.882,-10.197 49.764,-39.671 49.764,-59.671 0,-19.877 19.98,-29.784 29.784,-49.764 10.198,-19.897 44.872,-69.558 89.641,-49.66 0,0 39.67,-5.099 54.551,-10.199 14.903,-5.099 54.676,-19.792 74.346,-29.784 19.897,-10.197 69.454,-14.693 69.454,-14.693 0,0 39.173,15.606 54.055,15.606 14.902,0 63.443,-8.166 63.443,-8.166 0,0 22.426,72.107 22.426,87.113 0,14.985 14.902,29.763 39.877,39.774 24.582,10.197 139.115,35.068 188.879,-5.099 z m 572.026,975.07 c 0,14.902 -5.098,54.779 -10.197,74.656 -5.098,19.897 -15.005,54.779 -19.897,74.449 -5.1,20 -29.887,59.774 -44.665,69.764 -14.882,10.197 -39.877,39.877 -54.655,44.769 -14.903,5.098 -24.996,-34.882 -20.001,-54.759 5.098,-19.897 29.887,-74.552 29.887,-74.552 0,0 5.099,-29.784 10.197,-49.764 5.099,-19.794 64.749,-44.686 64.749,-44.686 l 39.877,-74.636 c 0,0 5.099,19.98 5.099,34.759 z m -2207.456,-296.367 c 6.114,2.073 15.606,6.135 28.561,17.866 18.757,16.313 29.887,24.664 54.759,34.758 24.789,10.198 34.779,24.789 64.666,39.774 29.887,15.007 19.98,5.1 59.65,49.786 39.877,44.663 34.882,44.663 44.769,69.64 10.197,24.996 24.892,49.681 34.882,64.769 10.197,14.882 39.774,24.789 54.676,34.779 14.882,10.197 39.774,19.877 54.655,19.877 14.985,0 59.754,44.769 84.647,49.681 24.892,5.098 24.892,54.862 24.892,54.862 l -24.892,69.558 -19.981,74.552 19.981,59.65 c 0,0 -29.991,24.996 -49.661,24.996 -18.362,0 -24.58,11.606 -44.665,6.115 -189.707,-177.149 -327.268,-408.868 -386.939,-670.663 z"
   inkscape:connector-curvature="0"
   style="fill:#000000;stroke-width:101.98416138;fill-opacity:1" /></g>
</svg>